<svg width="436" height="44" viewBox="0 0 436 44" fill="none" xmlns="http://www.w3.org/2000/svg">
<path d="M3.52 34V1.88H10.604V34H3.52ZM0.66 7.072V1.88H10.604V7.072H0.66ZM25.2309 34.748C22.4442 34.748 20.3029 33.8533 18.8069 32.064C17.3109 30.2453 16.5629 27.5173 16.5629 23.88V9.888H23.6029V24.232C23.6029 25.5227 23.9696 26.5493 24.7029 27.312C25.4362 28.0747 26.4189 28.456 27.6509 28.456C28.9122 28.456 29.9389 28.06 30.7309 27.268C31.5229 26.476 31.9189 25.4053 31.9189 24.056V9.888H38.9589V34H33.3709V23.836H33.8549C33.8549 26.2707 33.5322 28.3093 32.8869 29.952C32.2709 31.5653 31.3469 32.768 30.1149 33.56C28.8829 34.352 27.3576 34.748 25.5389 34.748H25.2309ZM56.2743 34.836C54.1916 34.836 52.3729 34.4987 50.8183 33.824C49.2929 33.12 48.0169 32.1813 46.9903 31.008C45.9636 29.8347 45.2009 28.5147 44.7023 27.048C44.2036 25.552 43.9543 24.012 43.9543 22.428V21.592C43.9543 19.9493 44.2183 18.38 44.7463 16.884C45.2743 15.3587 46.0516 14.0093 47.0783 12.836C48.1049 11.6627 49.3809 10.7387 50.9063 10.064C52.4609 9.38933 54.2356 9.052 56.2303 9.052C58.4009 9.052 60.3223 9.47733 61.9943 10.328C63.6663 11.1493 65.0009 12.308 65.9983 13.804C66.9956 15.3 67.5529 17.016 67.6703 18.952H60.7623C60.6449 17.8667 60.2049 16.9573 59.4423 16.224C58.7089 15.4613 57.6383 15.08 56.2303 15.08C55.0569 15.08 54.0743 15.3733 53.2823 15.96C52.5196 16.5467 51.9476 17.3533 51.5663 18.38C51.1849 19.4067 50.9943 20.624 50.9943 22.032C50.9943 23.3227 51.1703 24.496 51.5223 25.552C51.8743 26.5787 52.4316 27.3853 53.1943 27.972C53.9863 28.5293 55.0129 28.808 56.2743 28.808C57.2129 28.808 58.0049 28.6467 58.6503 28.324C59.3249 27.972 59.8529 27.5027 60.2343 26.916C60.6449 26.3 60.8943 25.596 60.9823 24.804H67.8463C67.7583 26.7987 67.2009 28.5587 66.1743 30.084C65.1476 31.58 63.7836 32.7533 62.0823 33.604C60.3809 34.4253 58.4449 34.836 56.2743 34.836ZM73.4927 34V9.888H80.5327V34H73.4927ZM70.2807 15.08V9.888H80.5327V15.08H70.2807ZM76.2207 7.512C74.9007 7.512 73.9181 7.17466 73.2727 6.5C72.6567 5.796 72.3487 4.916 72.3487 3.86C72.3487 2.77466 72.6567 1.89466 73.2727 1.22C73.9181 0.515997 74.9007 0.163998 76.2207 0.163998C77.5407 0.163998 78.5087 0.515997 79.1247 1.22C79.7701 1.89466 80.0927 2.77466 80.0927 3.86C80.0927 4.916 79.7701 5.796 79.1247 6.5C78.5087 7.17466 77.5407 7.512 76.2207 7.512ZM101.608 34V26.872H100.42V19.128C100.42 17.896 100.127 16.972 99.54 16.356C98.9534 15.74 98.0147 15.432 96.724 15.432C96.0787 15.432 95.228 15.4467 94.172 15.476C93.116 15.5053 92.0307 15.5493 90.916 15.608C89.8014 15.6667 88.7894 15.7253 87.88 15.784V9.844C88.5547 9.78533 89.3467 9.72667 90.256 9.668C91.1654 9.60933 92.104 9.56533 93.072 9.536C94.04 9.50666 94.9494 9.492 95.8 9.492C98.264 9.492 100.332 9.844 102.004 10.548C103.705 11.252 104.996 12.3227 105.876 13.76C106.756 15.168 107.196 16.9867 107.196 19.216V34H101.608ZM93.908 34.616C92.1774 34.616 90.652 34.308 89.332 33.692C88.0414 33.076 87.0294 32.196 86.296 31.052C85.5627 29.8787 85.196 28.4853 85.196 26.872C85.196 25.112 85.6507 23.6747 86.56 22.56C87.4694 21.416 88.7454 20.58 90.388 20.052C92.0307 19.4947 93.9227 19.216 96.064 19.216H101.212V23.132H96.02C94.788 23.132 93.8347 23.44 93.16 24.056C92.5147 24.6427 92.192 25.4493 92.192 26.476C92.192 27.444 92.5147 28.236 93.16 28.852C93.8347 29.4387 94.788 29.732 96.02 29.732C96.812 29.732 97.516 29.6 98.132 29.336C98.7774 29.0427 99.3054 28.5587 99.716 27.884C100.127 27.2093 100.361 26.2707 100.42 25.068L102.092 26.828C101.945 28.5 101.535 29.908 100.86 31.052C100.215 32.196 99.3054 33.076 98.132 33.692C96.988 34.308 95.58 34.616 93.908 34.616ZM113.169 34V9.888H118.757V20.228H118.361C118.361 17.764 118.669 15.7107 119.285 14.068C119.93 12.4253 120.898 11.1933 122.189 10.372C123.48 9.55067 125.049 9.14 126.897 9.14H127.205C130.021 9.14 132.162 10.064 133.629 11.912C135.125 13.7307 135.873 16.5027 135.873 20.228V34H128.833V19.832C128.833 18.5413 128.452 17.4853 127.689 16.664C126.926 15.8427 125.9 15.432 124.609 15.432C123.289 15.432 122.218 15.8573 121.397 16.708C120.605 17.5293 120.209 18.6147 120.209 19.964V34H113.169ZM153.62 34.836C151.508 34.836 149.631 34.5133 147.988 33.868C146.345 33.1933 144.952 32.284 143.808 31.14C142.693 29.996 141.843 28.6907 141.256 27.224C140.669 25.728 140.376 24.1587 140.376 22.516V21.504C140.376 19.832 140.669 18.248 141.256 16.752C141.872 15.2267 142.752 13.892 143.896 12.748C145.069 11.604 146.477 10.7093 148.12 10.064C149.763 9.38933 151.596 9.052 153.62 9.052C155.703 9.052 157.551 9.38933 159.164 10.064C160.807 10.7093 162.2 11.604 163.344 12.748C164.488 13.892 165.368 15.2267 165.984 16.752C166.6 18.248 166.908 19.832 166.908 21.504V22.516C166.908 24.1587 166.615 25.728 166.028 27.224C165.441 28.6907 164.576 29.996 163.432 31.14C162.317 32.284 160.939 33.1933 159.296 33.868C157.653 34.5133 155.761 34.836 153.62 34.836ZM153.62 28.896C154.999 28.896 156.143 28.6027 157.052 28.016C157.961 27.4293 158.651 26.608 159.12 25.552C159.619 24.496 159.868 23.3227 159.868 22.032C159.868 20.6533 159.619 19.4507 159.12 18.424C158.621 17.368 157.903 16.532 156.964 15.916C156.055 15.3 154.94 14.992 153.62 14.992C152.329 14.992 151.215 15.3 150.276 15.916C149.337 16.532 148.619 17.368 148.12 18.424C147.651 19.4507 147.416 20.6533 147.416 22.032C147.416 23.3227 147.651 24.496 148.12 25.552C148.589 26.608 149.293 27.4293 150.232 28.016C151.171 28.6027 152.3 28.896 153.62 28.896ZM182.669 34V10.504H186.013V20.58H185.485C185.485 18.292 185.778 16.356 186.365 14.772C186.981 13.1587 187.89 11.9267 189.093 11.076C190.296 10.2253 191.821 9.8 193.669 9.8H193.845C195.693 9.8 197.218 10.2253 198.421 11.076C199.653 11.9267 200.562 13.1587 201.149 14.772C201.736 16.356 202.029 18.292 202.029 20.58H200.797C200.797 18.292 201.105 16.356 201.721 14.772C202.337 13.1587 203.246 11.9267 204.449 11.076C205.681 10.2253 207.221 9.8 209.069 9.8H209.245C211.093 9.8 212.633 10.2253 213.865 11.076C215.097 11.9267 216.006 13.1587 216.593 14.772C217.209 16.356 217.517 18.292 217.517 20.58V34H213.293V19.656C213.293 17.7493 212.824 16.2827 211.885 15.256C210.946 14.2 209.641 13.672 207.969 13.672C206.238 13.672 204.845 14.2293 203.789 15.344C202.733 16.4293 202.205 17.9547 202.205 19.92V34H197.981V19.656C197.981 17.7493 197.512 16.2827 196.573 15.256C195.634 14.2 194.329 13.672 192.657 13.672C190.926 13.672 189.533 14.2293 188.477 15.344C187.421 16.4293 186.893 17.9547 186.893 19.92V34H182.669ZM236.075 34.792C234.022 34.792 232.218 34.44 230.663 33.736C229.108 33.032 227.788 32.108 226.703 30.964C225.647 29.7907 224.84 28.4853 224.283 27.048C223.755 25.6107 223.491 24.144 223.491 22.648V21.856C223.491 20.36 223.77 18.8933 224.327 17.456C224.884 15.9893 225.706 14.684 226.791 13.54C227.876 12.3667 229.196 11.4427 230.751 10.768C232.306 10.064 234.08 9.712 236.075 9.712C238.07 9.712 239.844 10.064 241.399 10.768C242.954 11.4427 244.274 12.3667 245.359 13.54C246.444 14.684 247.266 15.9893 247.823 17.456C248.38 18.8933 248.659 20.36 248.659 21.856V22.648C248.659 24.144 248.38 25.6107 247.823 27.048C247.295 28.4853 246.488 29.7907 245.403 30.964C244.347 32.108 243.042 33.032 241.487 33.736C239.932 34.44 238.128 34.792 236.075 34.792ZM236.075 31.008C237.835 31.008 239.331 30.6267 240.563 29.864C241.824 29.072 242.778 28.016 243.423 26.696C244.098 25.376 244.435 23.8947 244.435 22.252C244.435 20.58 244.098 19.084 243.423 17.764C242.748 16.444 241.78 15.4027 240.519 14.64C239.287 13.8773 237.806 13.496 236.075 13.496C234.374 13.496 232.892 13.8773 231.631 14.64C230.37 15.4027 229.402 16.444 228.727 17.764C228.052 19.084 227.715 20.58 227.715 22.252C227.715 23.8947 228.038 25.376 228.683 26.696C229.358 28.016 230.311 29.072 231.543 29.864C232.804 30.6267 234.315 31.008 236.075 31.008ZM254.986 34V10.504H258.33V20.58H257.802C257.802 18.2627 258.11 16.312 258.726 14.728C259.371 13.1147 260.339 11.8973 261.63 11.076C262.92 10.2253 264.548 9.8 266.514 9.8H266.69C269.652 9.8 271.838 10.724 273.246 12.572C274.683 14.42 275.402 17.0893 275.402 20.58V34H271.178V19.7C271.178 17.8813 270.664 16.4293 269.638 15.344C268.611 14.2293 267.203 13.672 265.414 13.672C263.566 13.672 262.07 14.244 260.926 15.388C259.782 16.532 259.21 18.0573 259.21 19.964V34H254.986ZM293.118 34.792C291.065 34.792 289.29 34.44 287.794 33.736C286.298 33.032 285.081 32.108 284.142 30.964C283.203 29.7907 282.499 28.4853 282.03 27.048C281.59 25.6107 281.37 24.144 281.37 22.648V21.856C281.37 20.3307 281.59 18.8493 282.03 17.412C282.499 15.9747 283.203 14.684 284.142 13.54C285.081 12.3667 286.269 11.4427 287.706 10.768C289.173 10.064 290.889 9.712 292.854 9.712C295.406 9.712 297.503 10.2693 299.146 11.384C300.818 12.4693 302.05 13.8773 302.842 15.608C303.663 17.3387 304.074 19.1867 304.074 21.152V23.044H283.218V19.876H300.994L300.026 21.592C300.026 19.92 299.762 18.4827 299.234 17.28C298.706 16.048 297.914 15.0947 296.858 14.42C295.802 13.7453 294.467 13.408 292.854 13.408C291.182 13.408 289.789 13.7893 288.674 14.552C287.589 15.3147 286.767 16.356 286.21 17.676C285.682 18.996 285.418 20.5213 285.418 22.252C285.418 23.924 285.682 25.4347 286.21 26.784C286.767 28.104 287.618 29.16 288.762 29.952C289.906 30.7147 291.358 31.096 293.118 31.096C294.966 31.096 296.462 30.6853 297.606 29.864C298.779 29.0427 299.483 28.0893 299.718 27.004H303.678C303.355 28.6173 302.71 30.0107 301.742 31.184C300.774 32.3573 299.557 33.252 298.09 33.868C296.623 34.484 294.966 34.792 293.118 34.792ZM318.959 43.152C317.874 43.152 316.774 43.108 315.659 43.02C314.574 42.932 313.533 42.8147 312.535 42.668V39.104C313.591 39.2507 314.691 39.368 315.835 39.456C317.009 39.5733 318.109 39.632 319.135 39.632C321.277 39.632 322.978 39.3387 324.239 38.752C325.53 38.1947 326.454 37.3 327.011 36.068C327.598 34.8653 327.891 33.3107 327.891 31.404V26.916L329.299 23.572C329.211 25.948 328.713 27.928 327.803 29.512C326.894 31.0667 325.706 32.24 324.239 33.032C322.802 33.7947 321.203 34.176 319.443 34.176C317.801 34.176 316.29 33.868 314.911 33.252C313.562 32.6067 312.389 31.7267 311.391 30.612C310.423 29.4973 309.661 28.2213 309.103 26.784C308.575 25.3173 308.311 23.7773 308.311 22.164V21.372C308.311 19.7293 308.59 18.204 309.147 16.796C309.705 15.3587 310.482 14.112 311.479 13.056C312.477 12 313.665 11.1787 315.043 10.592C316.451 10.0053 317.991 9.712 319.663 9.712C321.629 9.712 323.359 10.1373 324.855 10.988C326.351 11.8093 327.525 13.0267 328.375 14.64C329.255 16.224 329.739 18.1747 329.827 20.492L328.595 20.536V10.504H331.939V31.228C331.939 34.044 331.499 36.3173 330.619 38.048C329.769 39.808 328.39 41.0987 326.483 41.92C324.606 42.7413 322.098 43.152 318.959 43.152ZM320.235 30.304C321.643 30.304 322.919 29.996 324.063 29.38C325.237 28.764 326.161 27.884 326.835 26.74C327.539 25.5667 327.891 24.1733 327.891 22.56V20.536C327.891 18.952 327.525 17.6173 326.791 16.532C326.087 15.4467 325.163 14.6253 324.019 14.068C322.875 13.5107 321.629 13.232 320.279 13.232C318.754 13.232 317.405 13.584 316.231 14.288C315.058 14.992 314.149 15.9893 313.503 17.28C312.858 18.5413 312.535 20.0373 312.535 21.768C312.535 23.4987 312.858 25.0093 313.503 26.3C314.178 27.5907 315.087 28.588 316.231 29.292C317.405 29.9667 318.739 30.304 320.235 30.304ZM353.975 34V26.96H353.271V18.82C353.271 17.2067 352.846 15.9893 351.995 15.168C351.174 14.3467 349.956 13.936 348.343 13.936C347.434 13.936 346.495 13.9507 345.527 13.98C344.559 14.0093 343.635 14.0387 342.755 14.068C341.875 14.0973 341.112 14.1413 340.467 14.2V10.504C341.112 10.4453 341.787 10.4013 342.491 10.372C343.224 10.3133 343.972 10.284 344.735 10.284C345.498 10.2547 346.231 10.24 346.935 10.24C349.34 10.24 351.306 10.5333 352.831 11.12C354.356 11.6773 355.486 12.6013 356.219 13.892C356.952 15.1827 357.319 16.928 357.319 19.128V34H353.975ZM346.275 34.616C344.515 34.616 342.99 34.3227 341.699 33.736C340.438 33.12 339.455 32.24 338.751 31.096C338.076 29.952 337.739 28.5733 337.739 26.96C337.739 25.288 338.106 23.8947 338.839 22.78C339.602 21.6653 340.702 20.8293 342.139 20.272C343.576 19.6853 345.307 19.392 347.331 19.392H353.711V22.56H347.155C345.454 22.56 344.148 22.9707 343.239 23.792C342.33 24.6133 341.875 25.6693 341.875 26.96C341.875 28.2507 342.33 29.292 343.239 30.084C344.148 30.876 345.454 31.272 347.155 31.272C348.152 31.272 349.106 31.096 350.015 30.744C350.924 30.3627 351.672 29.7467 352.259 28.896C352.875 28.016 353.212 26.8133 353.271 25.288L354.415 26.96C354.268 28.632 353.858 30.04 353.183 31.184C352.538 32.2987 351.628 33.1493 350.455 33.736C349.311 34.3227 347.918 34.616 346.275 34.616ZM374.223 34.264C372.463 34.264 370.938 34.0147 369.647 33.516C368.386 33.0173 367.403 32.1667 366.699 30.964C366.025 29.732 365.687 28.0747 365.687 25.992V3.376H369.735V26.52C369.735 27.7813 370.073 28.764 370.747 29.468C371.451 30.1427 372.434 30.48 373.695 30.48H377.831V34.264H374.223ZM361.639 13.672V10.504H377.831V13.672H361.639ZM392.958 34.264C391.198 34.264 389.672 34.0147 388.382 33.516C387.12 33.0173 386.138 32.1667 385.434 30.964C384.759 29.732 384.422 28.0747 384.422 25.992V3.376H388.47V26.52C388.47 27.7813 388.807 28.764 389.482 29.468C390.186 30.1427 391.168 30.48 392.43 30.48H396.566V34.264H392.958ZM380.374 13.672V10.504H396.566V13.672H380.374ZM413.192 34.792C411.139 34.792 409.335 34.44 407.78 33.736C406.226 33.032 404.906 32.108 403.82 30.964C402.764 29.7907 401.958 28.4853 401.4 27.048C400.872 25.6107 400.608 24.144 400.608 22.648V21.856C400.608 20.36 400.887 18.8933 401.444 17.456C402.002 15.9893 402.823 14.684 403.908 13.54C404.994 12.3667 406.314 11.4427 407.868 10.768C409.423 10.064 411.198 9.712 413.192 9.712C415.187 9.712 416.962 10.064 418.516 10.768C420.071 11.4427 421.391 12.3667 422.476 13.54C423.562 14.684 424.383 15.9893 424.94 17.456C425.498 18.8933 425.776 20.36 425.776 21.856V22.648C425.776 24.144 425.498 25.6107 424.94 27.048C424.412 28.4853 423.606 29.7907 422.52 30.964C421.464 32.108 420.159 33.032 418.604 33.736C417.05 34.44 415.246 34.792 413.192 34.792ZM413.192 31.008C414.952 31.008 416.448 30.6267 417.68 29.864C418.942 29.072 419.895 28.016 420.54 26.696C421.215 25.376 421.552 23.8947 421.552 22.252C421.552 20.58 421.215 19.084 420.54 17.764C419.866 16.444 418.898 15.4027 417.636 14.64C416.404 13.8773 414.923 13.496 413.192 13.496C411.491 13.496 410.01 13.8773 408.748 14.64C407.487 15.4027 406.519 16.444 405.844 17.764C405.17 19.084 404.832 20.58 404.832 22.252C404.832 23.8947 405.155 25.376 405.8 26.696C406.475 28.016 407.428 29.072 408.66 29.864C409.922 30.6267 411.432 31.008 413.192 31.008Z" fill="white"/>
<path d="M430.665 34V28.632H435.769V34H430.665Z" fill="#F13024"/>
</svg>
